<svg xmlns="http://www.w3.org/2000/svg" width="256" height="256" viewBox="0 0 256 256">
<!-- SVG created with Arrow, by QuiverAI (https://quiver.ai) -->
  <path d="m157.8 4.81c-6.88 14.11-19.08 25.95-36.82 36.48-13.47 8.04-21.74 14.45-28.76 26.42-9.46 15.81-8.3 32.1-5.11 47.1l0.57-0.12c1.49-19.47 10.43-34.05 29.43-47.55 7.7-5.3 14.88-10.03 21.06-17.23 10.64-12.53 18.84-25.13 19.63-45.1z" fill="#000"/>
  <path d="m164.9 2.82c1.51 26.06-8.76 50.9-28.3 74.97-16.42 20.88-34.76 31.46-45.82 44.53-8.8 10.57-14.57 22.52-13.57 32.94 1.39 15.25 11 26.96 30 38.37 18.8 11.65 52.03 24.01 51.01 49.38-0.21 3.75-0.81 7.87-0.81 7.87 7.86-10.66 9.84-20.01 7.45-27.97-4.02-14.15-14.75-20.9-31.45-36.3-10.06-9.26-19.71-19.53-19.62-30.7 0.16-5.7 3.47-9.85 12.15-8.96 7.86 1.48 14.06 4.41 22.9 4.41 9.42-0.25 13.24-4.58 13.44-11.46 0-3.66-0.61-8.79 0.67-11.43 1.44-2.52 5.51-3.29 5.71-6.18 0.04-2.11-1.78-4.01-3.59-5.27 3.47-0.56 6.78-3.16 6.78-5.81-0.65-3.09-2.9-5-2.03-8.38 1.09-4.2 8.11-4.77 11.13-8.32 1.69-1.99 1.4-4.59-0.7-6.75-8.11-8.95-12.37-16.99-11.34-26.65 0.75-8 3.9-15 3.53-27.2-0.5-10.95-2.45-20.66-7.54-31.09z" fill="#000"/>
</svg>
